# xmcd CD database file
#
# Track frame offsets:
#	150
#	10840
#	24669
#	39199
#	59321
#	79027
#	95225
#	108985
#	128663
#	145601
#	158116
#	177633
#	197419
#
# Disc length: 2883 seconds
#
# Revision: 0
# Processed by: cddbd v1.5.1PL0 Copyright (c) Steve Scherf et al.
# Submitted via: CDex 1.51
#
DISCID=a10b410d
DTITLE=Varios - Grandes Nomes da MPB Vol 1
DYEAR=2004
DGENRE=MPB
TTITLE0=Trem da cores - Caetano Veloso
TTITLE1=Chora tua tristeza - Gal Costa
TTITLE2=Anos Dourados - Maria Betania
TTITLE3=Dezembros - Fagner
TTITLE4=Ebano - Luiz Melodia
TTITLE5=Nossos Momentos - Gal Costa
TTITLE6=Resto de mim/Olhos nos olhos-Betania
TTITLE7=Deslizes - Fagner
TTITLE8=Perola Negra - Luiz Melodia
TTITLE9=Alguem como tu - Gal Costa
TTITLE10=E o amor - Maria Betania
TTITLE11=Palavras e silencios - Fagner e Baleiro
TTITLE12=Magrelilha - Luiz Melodia
EXTD=YEAR: 2004
EXTT0=
EXTT1=
EXTT2=
EXTT3=
EXTT4=
EXTT5=
EXTT6=
EXTT7=
EXTT8=
EXTT9=
EXTT10=
EXTT11=
EXTT12=
PLAYORDER=
